<svg id="Capa_1" enable-background="new 0 0 502.453 502.453" height="512" viewBox="0 0 502.453 502.453" width="512" xmlns="http://www.w3.org/2000/svg"><g><path d="m251.227 2.727c-8.284 0-15 6.716-15 15 0 .485.028.964.073 1.437l1.995 20.99h25.865l1.995-20.99c.045-.474.073-.952.073-1.437-.001-8.285-6.717-15-15.001-15z" fill="#ffba48"/><path d="m251.227 32.727c-5.518 0-10.328 2.989-12.933 7.427l12.933 136.073 12.933-136.073c-2.606-4.439-7.415-7.427-12.933-7.427z" fill="#ffd185"/><path d="m156.13 21.643c-7.654 3.17-11.288 11.945-8.118 19.598.186.448.394.88.617 1.3l9.875 18.628 23.896-9.898-6.189-20.155c-.14-.455-.297-.907-.483-1.356-3.17-7.653-11.945-11.288-19.598-8.117z" fill="#ff9a42"/><path d="m167.61 49.359c-5.098 2.112-8.398 6.713-9.106 11.811l64.021 120.766-40.124-130.665c-4.106-3.103-9.692-4.024-14.791-1.912z" fill="#ffba48"/><path d="m75.511 75.511c-5.858 5.858-5.858 15.355 0 21.213.343.343.701.662 1.068.965l16.252 13.431 18.289-18.289-13.431-16.253c-.303-.367-.622-.725-.965-1.068-5.858-5.857-15.356-5.857-21.213.001z" fill="#ffba48"/><path d="m96.724 96.724c-3.902 3.902-5.189 9.416-3.893 14.396l105.363 87.073-87.074-105.362c-4.98-1.297-10.494-.009-14.396 3.893z" fill="#ffd185"/><path d="m21.643 156.13c-3.17 7.654.464 16.428 8.118 19.598.448.186.901.343 1.356.483l20.155 6.189 9.898-23.896-18.628-9.875c-.42-.223-.852-.431-1.3-.617-7.655-3.17-16.429.464-19.599 8.118z" fill="#ff9a42"/><path d="m49.359 167.61c-2.112 5.098-1.191 10.685 1.913 14.79l130.664 40.125-120.766-64.021c-5.098.709-9.699 4.008-11.811 9.106z" fill="#ffba48"/><path d="m2.727 251.227c0 8.284 6.716 15 15 15 .485 0 .964-.028 1.437-.073l20.99-1.995v-25.865l-20.99-1.995c-.474-.045-.952-.073-1.437-.073-8.285.001-15 6.716-15 15.001z" fill="#ffba48"/><path d="m32.727 251.227c0 5.518 2.989 10.328 7.427 12.933l136.073-12.933-136.073-12.933c-4.439 2.605-7.427 7.414-7.427 12.933z" fill="#ffd185"/><path d="m21.643 346.323c3.17 7.654 11.945 11.288 19.598 8.118.448-.186.88-.394 1.3-.617l18.628-9.875-9.898-23.896-20.155 6.189c-.455.14-.907.297-1.356.483-7.653 3.17-11.288 11.945-8.117 19.598z" fill="#ff9a42"/><path d="m49.359 334.843c2.112 5.098 6.713 8.398 11.811 9.106l120.766-64.021-130.665 40.125c-3.103 4.105-4.024 9.692-1.912 14.79z" fill="#ffba48"/><path d="m75.511 426.943c5.858 5.858 15.355 5.858 21.213 0 .343-.343.662-.701.965-1.068l13.431-16.252-18.289-18.289-16.252 13.431c-.367.303-.725.622-1.068.965-5.858 5.857-5.858 15.355 0 21.213z" fill="#ffba48"/><path d="m96.724 405.729c3.902 3.902 9.416 5.189 14.396 3.893l87.073-105.363-105.362 87.074c-1.297 4.98-.009 10.494 3.893 14.396z" fill="#ffd185"/><path d="m156.13 480.811c7.654 3.17 16.428-.464 19.598-8.118.186-.448.343-.901.483-1.356l6.189-20.155-23.896-9.898-9.875 18.628c-.223.42-.431.852-.617 1.3-3.17 7.654.464 16.428 8.118 19.599z" fill="#ff9a42"/><path d="m167.61 453.094c5.098 2.112 10.685 1.191 14.79-1.913l40.125-130.664-64.021 120.766c.709 5.098 4.008 9.699 9.106 11.811z" fill="#ffba48"/><path d="m251.227 499.727c8.284 0 15-6.716 15-15 0-.485-.028-.964-.073-1.437l-1.995-20.99h-25.865l-1.995 20.99c-.045.474-.073.952-.073 1.437.001 8.284 6.716 15 15.001 15z" fill="#ffba48"/><path d="m251.227 469.727c5.518 0 10.328-2.989 12.933-7.427l-12.933-136.073-12.933 136.073c2.605 4.438 7.414 7.427 12.933 7.427z" fill="#ffd185"/><path d="m346.323 480.811c7.654-3.17 11.288-11.945 8.118-19.598-.186-.448-.394-.88-.617-1.3l-9.875-18.628-23.896 9.898 6.189 20.155c.14.455.297.907.483 1.356 3.17 7.652 11.945 11.287 19.598 8.117z" fill="#ff7a3c"/><path d="m334.843 453.094c5.098-2.112 8.398-6.713 9.106-11.811l-64.021-120.766 40.125 130.664c4.105 3.104 9.692 4.025 14.79 1.913z" fill="#ff9a42"/><path d="m426.943 426.943c5.858-5.858 5.858-15.355 0-21.213-.343-.343-.701-.662-1.068-.965l-16.252-13.431-18.289 18.289 13.431 16.252c.303.367.622.725.965 1.068 5.857 5.858 15.355 5.858 21.213 0z" fill="#ff9a42"/><path d="m405.729 405.729c3.902-3.902 5.189-9.416 3.893-14.396l-105.362-87.073 87.073 105.363c4.98 1.296 10.494.008 14.396-3.894z" fill="#ffba48"/><path d="m480.811 346.323c3.17-7.654-.464-16.428-8.118-19.598-.448-.186-.901-.343-1.356-.483l-20.155-6.189-9.898 23.896 18.628 9.875c.42.223.852.431 1.3.617 7.654 3.171 16.428-.464 19.599-8.118z" fill="#ff7a3c"/><path d="m453.094 334.843c2.112-5.098 1.191-10.685-1.913-14.79l-130.664-40.125 120.766 64.021c5.098-.708 9.699-4.008 11.811-9.106z" fill="#ff9a42"/><path d="m499.727 251.227c0-8.284-6.716-15-15-15-.485 0-.964.028-1.437.073l-20.99 1.995v25.865l20.99 1.995c.474.045.952.073 1.437.073 8.284-.001 15-6.717 15-15.001z" fill="#ff9a42"/><path d="m469.727 251.227c0-5.518-2.989-10.328-7.427-12.933l-136.073 12.933 136.073 12.932c4.438-2.605 7.427-7.414 7.427-12.932z" fill="#ffba48"/><path d="m480.811 156.13c-3.17-7.654-11.945-11.288-19.598-8.118-.448.186-.88.394-1.3.617l-18.628 9.875 9.898 23.896 20.155-6.189c.455-.14.907-.297 1.356-.483 7.652-3.17 11.287-11.945 8.117-19.598z" fill="#ff7a3c"/><path d="m453.094 167.61c-2.112-5.098-6.713-8.398-11.811-9.106l-120.766 64.021 130.664-40.125c3.104-4.105 4.025-9.691 1.913-14.79z" fill="#ff9a42"/><path d="m426.943 75.511c-5.858-5.858-15.355-5.858-21.213 0-.343.343-.662.701-.965 1.068l-13.431 16.252 18.289 18.289 16.252-13.431c.367-.303.725-.622 1.068-.965 5.858-5.858 5.858-15.356 0-21.213z" fill="#ff9a42"/><path d="m405.729 96.724c-3.902-3.902-9.416-5.189-14.396-3.893l-87.073 105.363 105.363-87.073c1.296-4.981.008-10.495-3.894-14.397z" fill="#ffba48"/><path d="m346.323 21.643c-7.654-3.17-16.428.464-19.598 8.118-.186.448-.343.901-.483 1.356l-6.189 20.155 23.896 9.898 9.875-18.628c.223-.42.431-.852.617-1.3 3.171-7.655-.464-16.429-8.118-19.599z" fill="#ff7a3c"/><g fill="#ff9a42"><path d="m334.843 49.359c-5.098-2.112-10.685-1.191-14.79 1.913l-40.125 130.664 64.021-120.766c-.708-5.098-4.008-9.699-9.106-11.811z"/><circle cx="202.747" cy="7.501" r="7.5"/><circle cx="113.167" cy="44.606" r="7.5"/><circle cx="44.606" cy="113.167" r="7.5"/><circle cx="7.501" cy="202.747" r="7.5"/><circle cx="7.501" cy="299.707" r="7.5"/><circle cx="44.606" cy="389.286" r="7.5"/><circle cx="113.167" cy="457.847" r="7.5"/><circle cx="202.747" cy="494.952" r="7.5"/><circle cx="299.707" cy="494.952" r="7.5"/><circle cx="389.286" cy="457.847" r="7.5"/><circle cx="457.847" cy="389.286" r="7.5"/><circle cx="494.952" cy="299.707" r="7.5"/><circle cx="494.952" cy="202.747" r="7.5"/><circle cx="457.847" cy="113.167" r="7.5"/><circle cx="389.286" cy="44.606" r="7.5"/><circle cx="299.707" cy="7.501" r="7.5"/></g><path d="m275.838 261.421 6.972-3.486c5.528-2.764 5.528-10.652 0-13.416l-6.972-3.486 2.465-7.395c1.954-5.863-3.624-11.441-9.487-9.487l-7.395 2.465-3.486-6.972c-2.764-5.528-10.652-5.528-13.416 0l-3.486 6.972-7.395-2.465c-5.863-1.954-11.441 3.624-9.487 9.487l2.465 7.395-6.972 3.486c-5.528 2.764-5.528 10.652 0 13.416l6.972 3.486-2.465 7.395c-1.954 5.863 3.624 11.441 9.487 9.487l7.395-2.465 3.486 6.972c2.764 5.528 10.652 5.528 13.416 0l3.486-6.972 7.395 2.465c5.863 1.954 11.441-3.624 9.487-9.487z" fill="#ffba48"/></g></svg>